<svg width="24" height="24" viewBox="0 0 24 24" fill="none" xmlns="http://www.w3.org/2000/svg">
<path opacity="0.4" d="M21.0406 7.19L12.0006 12.42L2.96057 7.19C3.36057 6.45 3.94057 5.8 4.59057 5.44L9.93057 2.48C11.0706 1.84 12.9306 1.84 14.0706 2.48L19.4106 5.44C20.0606 5.8 20.6406 6.45 21.0406 7.19Z" fill="#64748B"/>
<path opacity="0.6" d="M12.0006 12.42V22C11.2506 22 10.5006 21.84 9.93062 21.52L4.59063 18.56C3.38063 17.89 2.39062 16.21 2.39062 14.83V9.17C2.39062 8.53 2.61062 7.83 2.96062 7.19L12.0006 12.42Z" fill="#64748B"/>
<path d="M21.6106 9.17V14.83C21.6106 16.21 20.6206 17.89 19.4106 18.56L14.0706 21.52C13.5006 21.84 12.7506 22 12.0006 22V12.42L21.0406 7.19C21.3906 7.83 21.6106 8.53 21.6106 9.17Z" fill="#64748B"/>
</svg>
