<svg width="24" height="24" viewBox="0 0 24 24" fill="none" xmlns="http://www.w3.org/2000/svg">
<path opacity="0.4" d="M16.19 2H7.82001C4.17001 2 2 4.17 2 7.81V16.18C2 19.82 4.17 21.99 7.81 21.99H16.18C19.82 21.99 21.99 19.82 21.99 16.18V7.81C22 4.17 19.83 2 16.19 2Z" fill="#64748B"/>
<path d="M17.9999 11.27C17.5799 11.27 17.2499 11.6 17.2499 12.02C17.2399 13.42 16.6999 14.73 15.7199 15.71C14.7299 16.7 13.4099 17.25 12.0099 17.25C10.6099 17.25 9.2899 16.7 8.2999 15.71C8.2699 15.68 8.24991 15.65 8.21991 15.62H9.0499C9.4599 15.62 9.7999 15.28 9.7999 14.87C9.7999 14.46 9.4599 14.12 9.0499 14.12H6.3999C5.9899 14.12 5.6499 14.46 5.6499 14.87V17.52C5.6499 17.93 5.9899 18.27 6.3999 18.27C6.8099 18.27 7.1499 17.93 7.1499 17.52V16.67C7.1799 16.7 7.2099 16.74 7.2399 16.78C8.5099 18.05 10.2099 18.76 12.0099 18.76C13.8099 18.76 15.5099 18.06 16.7799 16.78C18.0399 15.52 18.7399 13.83 18.7499 12.03C18.7499 11.61 18.4099 11.28 17.9999 11.27Z" fill="#64748B"/>
<path d="M5.99998 12.65C6.40998 12.65 6.73998 12.32 6.74998 11.91C6.76998 10.54 7.31998 9.25 8.27998 8.28C9.26998 7.29 10.59 6.74 11.99 6.74C13.39 6.74 14.71 7.29 15.7 8.28C15.73 8.31 15.75 8.34 15.78 8.37H14.95C14.54 8.37 14.2 8.71 14.2 9.12C14.2 9.53 14.54 9.87 14.95 9.87H17.6C18.01 9.87 18.35 9.53 18.35 9.12V6.48C18.35 6.07 18.01 5.73 17.6 5.73C17.19 5.73 16.85 6.07 16.85 6.48V7.34C16.82 7.31 16.79 7.27 16.76 7.23C15.49 5.96 13.79 5.25 11.99 5.25C10.19 5.25 8.48998 5.95 7.21998 7.23C5.96998 8.47 5.26998 10.13 5.24998 11.89C5.23998 12.3 5.56997 12.64 5.98997 12.65C5.99997 12.65 5.99998 12.65 5.99998 12.65Z" fill="#64748B"/>
</svg>
