<svg width="24" height="24" viewBox="0 0 24 24" fill="none" xmlns="http://www.w3.org/2000/svg">
<path opacity="0.4" d="M21.37 11.39V17.38C21.37 20.14 19.13 22.38 16.37 22.38H7.63C4.87 22.38 2.63 20.14 2.63 17.38V11.46C3.39 12.28 4.47 12.75 5.64 12.75C6.9 12.75 8.11 12.12 8.87 11.11C9.55 12.12 10.71 12.75 12 12.75C13.28 12.75 14.42 12.15 15.11 11.15C15.88 12.14 17.07 12.75 18.31 12.75C19.52 12.75 20.62 12.26 21.37 11.39Z" fill="#3B82F6"/>
<path d="M14.99 1.25H8.98997L8.24997 8.61C8.18997 9.29 8.28997 9.93 8.53997 10.51C9.11997 11.87 10.48 12.75 12 12.75C13.54 12.75 14.87 11.89 15.47 10.52C15.65 10.09 15.76 9.59 15.77 9.08V8.89L14.99 1.25Z" fill="#3B82F6"/>
<path opacity="0.6" d="M22.36 8.27L22.07 5.5C21.65 2.48 20.28 1.25 17.35 1.25H13.51L14.25 8.75C14.26 8.85 14.27 8.96 14.27 9.15C14.33 9.67 14.49 10.15 14.73 10.58C15.45 11.9 16.85 12.75 18.31 12.75C19.64 12.75 20.84 12.16 21.59 11.12C22.19 10.32 22.46 9.31 22.36 8.27Z" fill="#3B82F6"/>
<path opacity="0.6" d="M6.59002 1.25C3.65002 1.25 2.29002 2.48 1.86002 5.53L1.59002 8.28C1.49002 9.35 1.78002 10.39 2.41002 11.2C3.17002 12.19 4.34002 12.75 5.64002 12.75C7.10002 12.75 8.50002 11.9 9.21002 10.6C9.47002 10.15 9.64002 9.63 9.69002 9.09L10.47 1.26H6.59002V1.25Z" fill="#3B82F6"/>
<path d="M11.35 16.66C10.08 16.79 9.12 17.87 9.12 19.15V22.38H14.87V19.5C14.88 17.41 13.65 16.42 11.35 16.66Z" fill="#3B82F6"/>
</svg>
